<?xml version="1.0" encoding="iso-8859-1"?>
<!-- Generator: Adobe Illustrator 25.4.1, SVG Export Plug-In . SVG Version: 6.00 Build 0)  -->
<svg version="1.1" id="clock" xmlns="http://www.w3.org/2000/svg" xmlns:xlink="http://www.w3.org/1999/xlink" x="0px" y="0px"
	 viewBox="0 0 595.276 841.89" style="enable-background:new 0 0 595.276 841.89;" xml:space="preserve">
<linearGradient id="SVGID_1_" gradientUnits="userSpaceOnUse" x1="81.1802" y1="420.945" x2="514.0958" y2="420.945">
	<stop  offset="0" style="stop-color:#79A8DA"/>
	<stop  offset="0" style="stop-color:#7AA8DA"/>
	<stop  offset="0" style="stop-color:#8EB2DE"/>
	<stop  offset="0" style="stop-color:#95B6E0"/>
	<stop  offset="0.2017" style="stop-color:#98B7E0"/>
	<stop  offset="0.3087" style="stop-color:#A0BCE3"/>
	<stop  offset="0.3932" style="stop-color:#ADC5E7"/>
	<stop  offset="0.466" style="stop-color:#BFD2ED"/>
	<stop  offset="0.4719" style="stop-color:#C1D3ED"/>
	<stop  offset="0.5221" style="stop-color:#9DB9E1"/>
	<stop  offset="0.5753" style="stop-color:#7BA3D6"/>
	<stop  offset="0.6332" style="stop-color:#5E92CD"/>
	<stop  offset="0.6967" style="stop-color:#4386C7"/>
	<stop  offset="0.7684" style="stop-color:#297EC2"/>
	<stop  offset="0.8554" style="stop-color:#1079C0"/>
	<stop  offset="1" style="stop-color:#0178BF"/>
</linearGradient>
<circle style="fill:none;stroke:url(#SVGID_1_);stroke-width:4;stroke-miterlimit:10;" cx="297.638" cy="420.945" r="214.458"/>
<circle style="fill:none;" cx="297.638" cy="420.945" r="180.756"/>
<image style="overflow:visible;" width="782" height="781" id="img" xlink:href="6F6A9CDE5215C256.png"  transform="matrix(0.4933 0 0 0.4933 104.2713 228.5648)">
</image>
<rect x="60.862" y="184.169" style="fill:none;" width="473.551" height="473.551"/>
<path style="fill:#658AC7;" d="M297.638,253.587l-2.56,167.015c0,1.414,1.146,2.56,2.56,2.56c1.414,0,2.56-1.146,2.56-2.56
	L297.638,253.587z"/>
<path style="fill:#658AC7;" d="M181.377,543.203l115.585-120.558c0.976-1.024,1.604-2.008,1.405-2.198s-1.152,0.485-2.128,1.509
	L181.377,543.203z"/>
<path style="fill:#658AC7;" d="M182.592,359.081l114.315,64.251c0.976,0.529,2.196,0.167,2.725-0.809
	c0.529-0.976,0.167-2.196-0.809-2.725L182.592,359.081z"/>
</svg>
